<svg width="512" height="512" viewBox="0 0 512 512" fill="none" xmlns="http://www.w3.org/2000/svg">
<g clip-path="url(#clip0)">
<g clip-path="url(#clip1)">
<rect width="910" height="512" transform="translate(-199)" fill="#FFF370"/>
<path d="M404.683 258.453L458.991 274.656L501.328 287.287L484.564 328.163C443.602 428.048 342.73 501.997 231.295 502L404.683 258.453ZM404.683 258.453L472.16 240.733L506.805 231.634L501.571 196.199C485.704 88.7826 396.564 9.97758 281.832 10L404.683 258.453ZM10.8634 251.151C27.2521 117.563 147.614 10.005 281.822 10L10.8634 251.151ZM10.8634 251.151C-5.97763 388.427 93.1566 502.023 231.287 502L10.8634 251.151Z" fill="#F1ECDF" stroke="#EA5D57" stroke-width="80"/>
<path d="M330.616 257.227L453.273 293.821L474.442 300.137L466.06 320.575C427.938 413.533 334.003 481.998 231.291 482L330.616 257.227ZM330.616 257.227L467.08 221.388L484.402 216.839L481.785 199.122C467.382 101.612 386.745 29.9777 281.832 30L330.616 257.227ZM30.7146 253.587C45.8878 129.906 157.841 30.0025 281.827 30L30.7146 253.587ZM30.7146 253.587C15.3152 379.111 105.34 482.022 231.287 482L30.7146 253.587Z" fill="#F1ECDF" stroke="#472682" stroke-width="40"/>
</g>
</g>
<defs>
<clipPath id="clip0">
<rect width="512" height="512" fill="white"/>
</clipPath>
<clipPath id="clip1">
<rect width="910" height="512" fill="white" transform="translate(-199)"/>
</clipPath>
</defs>
</svg>
